<svg width="49" height="40" viewBox="0 0 49 40" fill="none" xmlns="http://www.w3.org/2000/svg">
<path fill-rule="evenodd" clip-rule="evenodd" d="M48.2289 35.0624L27.5834 2.03588C25.8866 -0.678627 23.1096 -0.678627 21.4166 2.03588L0.771084 35.0624C-0.925754 37.7769 0.273141 40 3.43317 40H45.5668C48.7269 40 49.9258 37.7769 48.2289 35.0624ZM24.5 36.0998C23.4841 36.0998 22.5099 35.6889 21.7915 34.9575C21.0732 34.2261 20.6697 33.2341 20.6697 32.1997C20.6697 31.1653 21.0732 30.1733 21.7915 29.4419C22.5099 28.7104 23.4841 28.2995 24.5 28.2995C25.5159 28.2995 26.4901 28.7104 27.2085 29.4419C27.9268 30.1733 28.3303 31.1653 28.3303 32.1997C28.3303 33.2341 27.9268 34.2261 27.2085 34.9575C26.4901 35.6889 25.5159 36.0998 24.5 36.0998ZM26.4228 24.3994H22.5772L20.6697 8.79875H28.3303L26.4228 24.3994Z" fill="#F9C22D"/>
</svg>
