<svg width="30" height="38" viewBox="0 0 30 38" fill="none" xmlns="http://www.w3.org/2000/svg">
<path d="M26.25 16.264V11.4C26.25 5.13 21.1875 0 15 0C8.8125 0 3.75 5.13 3.75 11.4V16.264C1.5225 17.5826 0 20.007 0 22.8V36.1C0 36.7612 0.1125 37.392 0.27 38H29.7375C29.8875 37.392 30 36.7612 30 36.1V22.8C30 20.007 28.4775 17.5826 26.25 16.264ZM18.75 27.36C18.75 29.032 17.4 30.4 15.75 30.4H14.25C12.6 30.4 11.25 29.032 11.25 27.36V25.84C11.25 24.168 12.6 22.8 14.25 22.8H15.75C17.4 22.8 18.75 24.168 18.75 25.84V27.36ZM21.375 15.2H8.625V11.4C8.625 7.8394 11.4862 4.94 15 4.94C18.5138 4.94 21.375 7.8394 21.375 11.4V15.2Z" fill="#03bf6d"/>
</svg>
